<mxfile host="app.diagrams.net" agent="Mozilla/5.0 (X11; Linux x86_64; rv:136.0) Gecko/20100101 Firefox/136.0" version="26.1.1">
  <diagram id="VETf5LYlRZAwOjoE17p3" name="Page-1">
    <mxGraphModel dx="550" dy="602" grid="1" gridSize="10" guides="1" tooltips="1" connect="1" arrows="1" fold="1" page="1" pageScale="1" pageWidth="1169" pageHeight="827" math="0" shadow="0">
      <root>
        <mxCell id="0" />
        <mxCell id="1" parent="0" />
        <mxCell id="ePRh4TcFxG1AIVr1Jd2X-147" value="" style="edgeStyle=orthogonalEdgeStyle;rounded=0;orthogonalLoop=1;jettySize=auto;html=1;startArrow=none;startFill=0;endArrow=none;endFill=0;" parent="1" source="ePRh4TcFxG1AIVr1Jd2X-1" target="ePRh4TcFxG1AIVr1Jd2X-43" edge="1">
          <mxGeometry relative="1" as="geometry" />
        </mxCell>
        <mxCell id="ePRh4TcFxG1AIVr1Jd2X-1" value="HRP&lt;br&gt;FHIR" style="whiteSpace=wrap;html=1;aspect=fixed;" parent="1" vertex="1">
          <mxGeometry x="240" y="280" width="80" height="80" as="geometry" />
        </mxCell>
        <mxCell id="ePRh4TcFxG1AIVr1Jd2X-6" value="" style="edgeStyle=orthogonalEdgeStyle;rounded=0;orthogonalLoop=1;jettySize=auto;html=1;" parent="1" source="ePRh4TcFxG1AIVr1Jd2X-4" target="ePRh4TcFxG1AIVr1Jd2X-1" edge="1">
          <mxGeometry relative="1" as="geometry" />
        </mxCell>
        <mxCell id="ePRh4TcFxG1AIVr1Jd2X-4" value="&lt;font style=&quot;font-size: 10px&quot;&gt;&lt;b&gt;Bundle&lt;/b&gt;&lt;br&gt;Task (request) +&lt;br&gt;Measure +&lt;br&gt;Library&lt;/font&gt;" style="shape=document;whiteSpace=wrap;html=1;boundedLbl=1;size=0.125;" parent="1" vertex="1">
          <mxGeometry x="80" y="280" width="80" height="80" as="geometry" />
        </mxCell>
        <mxCell id="ePRh4TcFxG1AIVr1Jd2X-22" value="1" style="ellipse;whiteSpace=wrap;html=1;aspect=fixed;fillColor=#fff2cc;strokeColor=#d6b656;" parent="1" vertex="1">
          <mxGeometry x="150" y="270" width="20" height="20" as="geometry" />
        </mxCell>
        <mxCell id="ePRh4TcFxG1AIVr1Jd2X-69" style="edgeStyle=orthogonalEdgeStyle;rounded=0;orthogonalLoop=1;jettySize=auto;html=1;exitX=0.996;exitY=0.121;exitDx=0;exitDy=0;entryX=0;entryY=0.5;entryDx=0;entryDy=0;startArrow=none;startFill=0;endArrow=none;endFill=0;exitPerimeter=0;" parent="1" source="ePRh4TcFxG1AIVr1Jd2X-27" target="ePRh4TcFxG1AIVr1Jd2X-40" edge="1">
          <mxGeometry relative="1" as="geometry">
            <Array as="points">
              <mxPoint x="320" y="520" />
            </Array>
          </mxGeometry>
        </mxCell>
        <mxCell id="ePRh4TcFxG1AIVr1Jd2X-27" value="HRP&lt;br&gt;BPE" style="whiteSpace=wrap;html=1;aspect=fixed;" parent="1" vertex="1">
          <mxGeometry x="240" y="480" width="80" height="80" as="geometry" />
        </mxCell>
        <mxCell id="ePRh4TcFxG1AIVr1Jd2X-149" value="" style="edgeStyle=orthogonalEdgeStyle;rounded=0;orthogonalLoop=1;jettySize=auto;html=1;startArrow=none;startFill=0;endArrow=none;endFill=0;" parent="1" source="ePRh4TcFxG1AIVr1Jd2X-31" target="ePRh4TcFxG1AIVr1Jd2X-123" edge="1">
          <mxGeometry relative="1" as="geometry" />
        </mxCell>
        <mxCell id="ePRh4TcFxG1AIVr1Jd2X-31" value="DIZ&lt;br&gt;FHIR" style="whiteSpace=wrap;html=1;aspect=fixed;" parent="1" vertex="1">
          <mxGeometry x="560" y="280" width="80" height="80" as="geometry" />
        </mxCell>
        <mxCell id="ePRh4TcFxG1AIVr1Jd2X-39" value="DIZ&lt;br&gt;BPE" style="whiteSpace=wrap;html=1;aspect=fixed;" parent="1" vertex="1">
          <mxGeometry x="560" y="480" width="80" height="80" as="geometry" />
        </mxCell>
        <mxCell id="ePRh4TcFxG1AIVr1Jd2X-42" value="" style="edgeStyle=orthogonalEdgeStyle;rounded=0;orthogonalLoop=1;jettySize=auto;html=1;startArrow=none;startFill=0;entryX=0;entryY=0.5;entryDx=0;entryDy=0;exitX=1;exitY=0.5;exitDx=0;exitDy=0;" parent="1" source="ePRh4TcFxG1AIVr1Jd2X-40" target="ePRh4TcFxG1AIVr1Jd2X-31" edge="1">
          <mxGeometry relative="1" as="geometry">
            <Array as="points">
              <mxPoint x="520" y="520" />
              <mxPoint x="520" y="320" />
            </Array>
          </mxGeometry>
        </mxCell>
        <mxCell id="ePRh4TcFxG1AIVr1Jd2X-40" value="&lt;font style=&quot;font-size: 10px&quot;&gt;Task&lt;br&gt;(execute)&lt;/font&gt;" style="shape=document;whiteSpace=wrap;html=1;boundedLbl=1;size=0.25;" parent="1" vertex="1">
          <mxGeometry x="400" y="500" width="80" height="40" as="geometry" />
        </mxCell>
        <mxCell id="ePRh4TcFxG1AIVr1Jd2X-148" value="" style="edgeStyle=orthogonalEdgeStyle;rounded=0;orthogonalLoop=1;jettySize=auto;html=1;startArrow=none;startFill=0;endArrow=classic;endFill=1;exitX=0.499;exitY=0.885;exitDx=0;exitDy=0;exitPerimeter=0;" parent="1" source="ePRh4TcFxG1AIVr1Jd2X-43" target="ePRh4TcFxG1AIVr1Jd2X-27" edge="1">
          <mxGeometry relative="1" as="geometry" />
        </mxCell>
        <mxCell id="ePRh4TcFxG1AIVr1Jd2X-43" value="&lt;font style=&quot;font-size: 10px&quot;&gt;Task&lt;br&gt;(request)&lt;/font&gt;" style="shape=document;whiteSpace=wrap;html=1;boundedLbl=1;size=0.25;" parent="1" vertex="1">
          <mxGeometry x="240" y="400" width="80" height="40" as="geometry" />
        </mxCell>
        <mxCell id="ePRh4TcFxG1AIVr1Jd2X-46" value="2" style="ellipse;whiteSpace=wrap;html=1;aspect=fixed;fillColor=#fff2cc;strokeColor=#d6b656;" parent="1" vertex="1">
          <mxGeometry x="310" y="390" width="20" height="20" as="geometry" />
        </mxCell>
        <mxCell id="ePRh4TcFxG1AIVr1Jd2X-47" value="3" style="ellipse;whiteSpace=wrap;html=1;aspect=fixed;fillColor=#fff2cc;strokeColor=#d6b656;" parent="1" vertex="1">
          <mxGeometry x="470" y="490" width="20" height="20" as="geometry" />
        </mxCell>
        <mxCell id="ePRh4TcFxG1AIVr1Jd2X-150" value="" style="edgeStyle=orthogonalEdgeStyle;rounded=0;orthogonalLoop=1;jettySize=auto;html=1;startArrow=none;startFill=0;endArrow=classic;endFill=1;exitX=0.499;exitY=0.885;exitDx=0;exitDy=0;exitPerimeter=0;" parent="1" source="ePRh4TcFxG1AIVr1Jd2X-123" target="ePRh4TcFxG1AIVr1Jd2X-39" edge="1">
          <mxGeometry relative="1" as="geometry" />
        </mxCell>
        <mxCell id="ePRh4TcFxG1AIVr1Jd2X-123" value="&lt;font style=&quot;font-size: 10px&quot;&gt;Task&lt;br&gt;(execute)&lt;/font&gt;" style="shape=document;whiteSpace=wrap;html=1;boundedLbl=1;size=0.25;" parent="1" vertex="1">
          <mxGeometry x="560" y="400" width="80" height="40" as="geometry" />
        </mxCell>
        <mxCell id="ePRh4TcFxG1AIVr1Jd2X-151" value="4" style="ellipse;whiteSpace=wrap;html=1;aspect=fixed;fillColor=#fff2cc;strokeColor=#d6b656;" parent="1" vertex="1">
          <mxGeometry x="630" y="390" width="20" height="20" as="geometry" />
        </mxCell>
      </root>
    </mxGraphModel>
  </diagram>
</mxfile>
